<svg width="114" height="32" viewBox="0 0 114 32" fill="none" xmlns="http://www.w3.org/2000/svg">
<path d="M16.3212 3.41485C16.3212 4.44016 16.3146 5.46547 16.3212 6.49079C16.3212 6.71152 16.2683 6.77664 16.0321 6.78657C13.9476 6.82846 11.9372 7.56679 10.321 8.8839C8.70489 10.201 7.57606 12.0211 7.11441 14.0542C6.8547 15.2904 6.85145 16.5667 7.10486 17.8042C7.35826 19.0416 7.86294 20.2139 8.58765 21.2485C9.31236 22.283 10.2417 23.1578 11.3181 23.8188C12.3945 24.4797 13.5951 24.9127 14.8456 25.091C17.2295 25.4857 19.6737 24.9455 21.6691 23.5827C23.6645 22.22 25.0571 20.1399 25.5568 17.7758C25.6613 17.267 25.7204 16.7499 25.7333 16.2307C25.74 16.0375 25.8029 15.9802 25.9993 15.9813C28.1316 15.9868 30.2628 15.9912 32.394 15.9813C32.7152 15.9813 32.6578 16.1634 32.6534 16.3411C32.6044 19.9158 31.3092 23.3613 28.9914 26.0832C26.3001 29.3616 22.4233 31.4452 18.2041 31.8807C14.1164 32.3779 9.99209 31.3092 6.66024 28.8895C3.32839 26.4698 1.03604 22.8785 0.244054 18.8376C-0.485318 14.7086 0.434891 10.4583 2.80677 7.0008C5.17866 3.54328 8.81274 1.15473 12.9274 0.348853C13.9394 0.136527 14.9695 0.0219545 16.0034 0.00671522C16.2826 0.00671522 16.3345 0.0916979 16.3345 0.337817C16.3212 1.36423 16.3212 2.38954 16.3212 3.41485Z" fill="#008638"/>
<path d="M32.5806 28.5719C32.5806 27.5588 32.5894 26.5456 32.574 25.5335C32.574 25.2753 32.6479 25.2101 32.9051 25.2024C34.9079 25.1508 36.8414 24.4583 38.4216 23.2267C40.0018 21.9951 41.1455 20.2892 41.6848 18.3597C42.0107 17.1105 42.0709 15.8069 41.8613 14.5331C41.6517 13.2592 41.1771 12.0436 40.4682 10.9647C39.7593 9.88585 38.8318 8.9678 37.7457 8.26994C36.6596 7.57209 35.4391 7.10997 34.1632 6.91347C31.7136 6.48103 29.1925 7.03833 27.1535 8.46303C25.1144 9.88772 23.7241 12.0634 23.2877 14.5123C23.2088 14.9 23.174 15.2954 23.1839 15.691C23.1949 15.9062 23.1298 15.9945 22.8892 15.9934C20.7702 15.9853 18.6508 15.9853 16.531 15.9934C16.2131 15.9934 16.2297 15.8378 16.2363 15.6259C16.3101 11.9996 17.6492 8.5133 20.0219 5.77007C22.0139 3.43896 24.6171 1.71024 27.5384 0.778591C30.4597 -0.15306 33.5831 -0.25065 36.5569 0.49681C39.5307 1.24427 42.2368 2.8071 44.3704 5.00931C46.504 7.21152 47.9805 9.96566 48.6335 12.9616C49.0274 15.0583 48.9985 17.2125 48.5486 19.2979C48.0986 21.3832 47.2366 23.3577 46.0132 25.1054C44.7898 26.8531 43.2297 28.3389 41.4243 29.4754C39.6189 30.612 37.6046 31.3765 35.4998 31.724C34.6426 31.8743 33.7751 31.9581 32.9051 31.9745C32.6313 31.9745 32.574 31.8962 32.574 31.6434C32.5894 30.6259 32.5806 29.5994 32.5806 28.5719Z" fill="#78D200"/>
<path d="M66.6343 25.5446C61.2837 25.5877 57.2531 22.2722 56.5224 17.4448C56.3173 16.1959 56.366 14.9184 56.6657 13.6888C56.9653 12.4591 57.5097 11.3025 58.2664 10.2879C59.0231 9.27342 59.9765 8.42181 61.0697 7.78401C62.1628 7.14621 63.3734 6.7353 64.6289 6.57582C66.7307 6.21922 68.891 6.49065 70.8393 7.35612C71.8593 7.83951 72.7801 8.50914 73.5543 9.33059C73.7154 9.49724 73.7011 9.58443 73.5477 9.74336C72.5853 10.7396 71.6321 11.7432 70.6881 12.7542C70.5004 12.9573 70.4122 12.8943 70.2565 12.7387C69.5081 11.9189 68.5339 11.3387 67.4565 11.0711C66.3781 10.7832 65.2311 10.9078 64.2396 11.4205C63.2481 11.9332 62.4834 12.7971 62.0949 13.8435C61.5186 15.2035 61.5039 16.7362 62.054 18.107C62.3053 18.7346 62.6868 19.3017 63.1735 19.7708C63.6602 20.24 64.2409 20.6005 64.8772 20.8286C65.5136 21.0566 66.1911 21.147 66.865 21.0937C67.5389 21.0405 68.1938 20.8448 68.7864 20.5196C69.4217 20.1927 70.007 19.7768 70.5247 19.2846C70.6826 19.14 70.7675 19.1477 70.9143 19.2945C71.8226 20.2051 72.7332 21.1112 73.6581 22.004C73.8413 22.1806 73.7795 22.2612 73.6404 22.4102C72.7655 23.4043 71.6871 24.1987 70.4783 24.7395C69.2695 25.2803 67.9585 25.5549 66.6343 25.5446Z" fill="#008638"/>
<path d="M106.088 6.43551C108.225 6.33435 110.337 6.9309 112.105 8.13517C112.599 8.49952 113.059 8.9057 113.483 9.34921C113.599 9.4673 113.615 9.54456 113.483 9.68031C112.496 10.7045 111.517 11.7346 110.545 12.7706C110.372 12.956 110.292 12.8666 110.166 12.7386C109.42 11.9164 108.449 11.3305 107.374 11.0533C106.31 10.7611 105.175 10.8729 104.188 11.3672C103.201 11.8615 102.431 12.7034 102.028 13.7308C101.71 14.4381 101.544 15.2042 101.541 15.9796C101.537 16.755 101.696 17.5226 102.008 18.2327C102.275 18.8412 102.666 19.3874 103.156 19.8362C103.646 20.285 104.225 20.6267 104.854 20.8393C105.484 21.0519 106.151 21.1309 106.813 21.071C107.475 21.0112 108.117 20.814 108.698 20.4919C109.322 20.1699 109.898 19.7611 110.407 19.2778C110.569 19.1277 110.655 19.1079 110.824 19.2778C111.719 20.1817 112.628 21.0746 113.539 21.9631C113.688 22.1088 113.727 22.1838 113.562 22.3703C112.606 23.3758 111.454 24.1758 110.179 24.7216C108.903 25.2674 107.529 25.5475 106.141 25.5448C104.753 25.5421 103.381 25.2567 102.107 24.706C100.833 24.1553 99.6849 23.3508 98.7323 22.3416C97.5626 21.0782 96.7687 19.5133 96.44 17.8232C96.1112 16.1331 96.2607 14.3848 96.8715 12.775C97.3971 11.1859 98.3485 9.77138 99.6221 8.68535C100.896 7.59932 102.443 6.88338 104.095 6.61541C104.75 6.47723 105.419 6.41685 106.088 6.43551Z" fill="#008638"/>
<path d="M90.9062 8.58336C89.5826 7.56608 88.0354 6.87912 86.3931 6.57949C84.7508 6.27986 83.0608 6.37621 81.4632 6.86053C79.2436 7.42546 77.3031 8.77393 75.9996 10.6572C74.6962 12.5406 74.1177 14.8317 74.3709 17.108C74.624 19.3844 75.6918 21.4924 77.3772 23.0433C79.0626 24.5942 81.2519 25.4834 83.5414 25.5468C85.5053 25.6502 87.4641 25.2642 89.2419 24.4233C90.6806 23.7317 91.9184 22.6836 92.8377 21.3787C93.757 20.0737 94.3272 18.5552 94.494 16.9677C94.6608 15.3802 94.4187 13.7764 93.7907 12.3089C93.1627 10.8413 92.1697 9.55882 90.9062 8.58336ZM86.3403 20.6906C85.65 20.9755 84.904 21.1001 84.1586 21.0551C83.4132 21.01 82.6877 20.7965 82.0367 20.4307C81.3856 20.0648 80.8261 19.556 80.4 18.9427C79.974 18.3294 79.6926 17.6274 79.577 16.8896C79.4438 16.1758 79.4592 15.4422 79.6223 14.7346C79.7854 14.0271 80.0928 13.3607 80.5251 12.7773C81.0403 12.0714 81.7469 11.5277 82.5612 11.2105C83.3756 10.8932 84.2638 10.8158 85.1208 10.9872C85.9578 11.0918 86.7506 11.4223 87.4142 11.9432C88.0777 12.464 88.5871 13.1557 88.8876 13.9439C89.1621 14.5696 89.2976 15.2474 89.2849 15.9305C89.3362 16.9291 89.0818 17.9195 88.5557 18.7698C88.0296 19.6201 87.2568 20.2909 86.3403 20.6906Z" fill="#008638"/>
</svg>
