<svg xmlns="http://www.w3.org/2000/svg" width="73" height="32" viewBox="0 0 73.6574 32" fill="none">
  <path d="M24.6873 20.7348L16.2192 17.7793L24.4381 18.3332L24.0873 17.0977L16.1162 16.4854L23.0473 14.9515L22.278 13.8253L15.8331 15.1684L20.9056 12.1421L19.8563 11.1898L14.9207 14.3192L23.6088 3.71556L22.4534 2.72629L15.3715 11.3667L19.3055 0.984663L17.9039 0.529257L14.1191 10.6405L14.7546 0.0523108L13.373 0L12.7406 10.4113L10.5713 0.335401L9.29891 0.641569L11.4605 10.5867L6.87879 1.50469L5.75105 2.00779L10.3697 11.179L3.6371 3.58786L2.84629 4.46483L9.542 12.0375L1.28775 6.56647L0.79389 7.62037L8.75581 13.0175L0.126161 10.0682L0 11.2652L8.46964 14.2207L0.249242 13.6683L0.601573 14.9023L8.57272 15.5146L1.64162 17.0485L2.41089 18.1747L8.85581 16.8331L3.78326 19.8579L4.831 20.8102L9.76816 17.6808L1.08005 28.2844L2.23396 29.2737L9.31737 20.6333L5.38333 31.0153L6.78495 31.4707L10.5682 21.3595L9.93432 31.9477L11.3159 32L11.9483 21.5887L14.1176 31.6646L15.39 31.3584L13.2268 21.4133L17.8101 30.4953L18.9378 29.9922L14.3191 20.821L21.0502 28.4121L21.8426 27.5352L15.1469 19.9625L23.3996 25.4335L23.8935 24.3812L15.9331 18.9825L24.5627 21.9318L24.6873 20.7348Z" fill="#3774FF"/>
  <path d="M30.6415 28.0229V23.8319H33.5893V24.5104H31.44V25.5412H33.3693V26.2197H31.44V27.3444H33.7093V28.0229H30.6415Z" fill="#032066"/>
  <path d="M35.8033 28.0229V23.8319H37.3664C37.7787 23.8319 38.1465 23.9242 38.468 24.1073C38.7896 24.2919 39.0373 24.5427 39.2126 24.8627C39.388 25.1828 39.4758 25.5366 39.4758 25.9274C39.4758 26.3182 39.388 26.6721 39.2126 26.9921C39.0373 27.3121 38.7896 27.5629 38.468 27.7475C38.1465 27.9321 37.7787 28.0229 37.3664 28.0229H35.8033ZM37.3587 27.2967C37.6203 27.2967 37.848 27.2382 38.0434 27.1198C38.2388 27.0028 38.3895 26.8398 38.4957 26.6336C38.6018 26.4274 38.6557 26.1936 38.6557 25.932C38.6557 25.6705 38.6018 25.4351 38.4957 25.2274C38.3895 25.0197 38.2388 24.855 38.0434 24.735C37.848 24.615 37.6203 24.555 37.3587 24.555H36.6002V27.2967H37.3587Z" fill="#032066"/>
  <path d="M42.3251 27.8598C42.0528 27.7106 41.8405 27.5013 41.6897 27.2305C41.5389 26.9598 41.4635 26.6428 41.4635 26.2797V23.8319H42.262V26.2874C42.262 26.6028 42.3543 26.8613 42.5374 27.0628C42.722 27.2644 42.9682 27.3659 43.279 27.3659C43.5898 27.3659 43.8436 27.2644 44.0267 27.0628C44.2114 26.8613 44.3021 26.6028 44.3021 26.2874V23.8319H45.1006V26.2797C45.1006 26.6428 45.0252 26.9613 44.8745 27.2305C44.7237 27.5013 44.5114 27.7106 44.236 27.8598C43.9606 28.009 43.6421 28.0829 43.2775 28.0829C42.9128 28.0829 42.5959 28.009 42.3236 27.8598H42.3251Z" fill="#032066"/>
  <path d="M48.1208 27.7998C47.7992 27.6075 47.5469 27.3459 47.3653 27.0152C47.1838 26.6844 47.093 26.3228 47.093 25.9274C47.093 25.532 47.1838 25.1704 47.3653 24.8397C47.5469 24.5089 47.7992 24.2489 48.1208 24.0581C48.4423 23.8673 48.807 23.7719 49.2147 23.7719C49.6808 23.7719 50.0793 23.8935 50.4117 24.1381C50.744 24.3827 50.9794 24.7074 51.1163 25.1166L50.3917 25.3366C50.3024 25.0797 50.1547 24.8735 49.9486 24.7212C49.7424 24.5689 49.4947 24.492 49.207 24.492C48.9547 24.492 48.7285 24.555 48.5285 24.6812C48.3285 24.8074 48.1746 24.9797 48.0654 25.1966C47.9562 25.4135 47.9023 25.6582 47.9023 25.9289C47.9023 26.1997 47.9562 26.4428 48.0654 26.6613C48.1746 26.8782 48.3285 27.0505 48.5285 27.1767C48.7285 27.3029 48.9547 27.3659 49.207 27.3659C49.4901 27.3659 49.7347 27.2921 49.9393 27.1429C50.1439 26.9936 50.2916 26.7936 50.3855 26.5413L51.1178 26.7613C50.9763 27.1644 50.7394 27.4875 50.4055 27.729C50.0732 27.9706 49.6762 28.0921 49.2147 28.0921C48.807 28.0921 48.4423 27.9952 48.1208 27.8029V27.7998Z" fill="#032066"/>
  <path d="M59.2905 27.7998C58.969 27.6075 58.7167 27.3459 58.5351 27.0152C58.3536 26.6844 58.2628 26.3228 58.2628 25.9274C58.2628 25.532 58.3536 25.1704 58.5351 24.8397C58.7167 24.5089 58.969 24.2489 59.2905 24.0581C59.6121 23.8673 59.9767 23.7719 60.3844 23.7719C60.8506 23.7719 61.2491 23.8935 61.5814 24.1381C61.9137 24.3827 62.1491 24.7074 62.2861 25.1166L61.5614 25.3366C61.4722 25.0797 61.3245 24.8735 61.1183 24.7212C60.9122 24.5689 60.6645 24.492 60.3768 24.492C60.1244 24.492 59.8983 24.555 59.6983 24.6812C59.4982 24.8074 59.3444 24.9797 59.2352 25.1966C59.1259 25.4135 59.0721 25.6582 59.0721 25.9289C59.0721 26.1997 59.1259 26.4428 59.2352 26.6613C59.3444 26.8782 59.4982 27.0505 59.6983 27.1767C59.8983 27.3029 60.1244 27.3659 60.3768 27.3659C60.6598 27.3659 60.9045 27.2921 61.1091 27.1429C61.3137 26.9936 61.4614 26.7936 61.5553 26.5413L62.2876 26.7613C62.1461 27.1644 61.9091 27.4875 61.5753 27.729C61.2429 27.9706 60.846 28.0921 60.3844 28.0921C59.9767 28.0921 59.6121 27.9952 59.2905 27.8029V27.7998ZM60.2198 29.0029H59.3059L60.0444 27.8644L60.5214 28.0337L60.2198 29.0045V29.0029Z" fill="#032066"/>
  <path d="M56.8673 28.0306H56.0119L55.595 26.9721H53.7918L53.378 28.0306H52.5518L54.2811 23.8288H55.1457L56.8673 28.0306ZM54.6903 24.6873L54.0518 26.3059H55.3288L54.6903 24.6873Z" fill="#032066"/>
  <path d="M67.9894 28.0306H67.134L66.717 26.9721H64.9139L64.5 28.0306H63.6738L65.4031 23.8288H66.2678L67.9894 28.0306ZM65.8139 24.6873L65.1754 26.3059H66.4524L65.8139 24.6873Z" fill="#032066"/>
  <path d="M70.3942 27.8029C70.068 27.6121 69.8157 27.3521 69.6356 27.0244C69.4556 26.6967 69.3664 26.3305 69.3664 25.9274C69.3664 25.5243 69.4556 25.1581 69.6356 24.8304C69.8157 24.5027 70.068 24.2427 70.3942 24.0519C70.7203 23.8612 71.0911 23.7658 71.5081 23.7658C71.925 23.7658 72.3035 23.8596 72.6296 24.0489C72.9558 24.2381 73.2081 24.4966 73.3881 24.8274C73.5681 25.1581 73.6574 25.5243 73.6574 25.9289C73.6574 26.3336 73.5681 26.6998 73.3881 27.0305C73.2081 27.3613 72.9558 27.6198 72.6296 27.809C72.3035 27.9983 71.9296 28.0921 71.5081 28.0921C71.0865 28.0921 70.7203 27.9967 70.3942 27.806V27.8029ZM72.2096 27.1736C72.4112 27.0475 72.5666 26.8751 72.6758 26.6582C72.785 26.4413 72.8389 26.1967 72.8389 25.9259C72.8389 25.6551 72.785 25.4043 72.6758 25.1874C72.5666 24.9704 72.4112 24.7997 72.2096 24.675C72.0081 24.5504 71.7742 24.4889 71.5081 24.4889C71.2419 24.4889 71.008 24.5504 70.8065 24.675C70.6049 24.7997 70.4495 24.9704 70.3403 25.1904C70.2311 25.4105 70.1772 25.6551 70.1772 25.9259C70.1772 26.1967 70.2311 26.4397 70.3403 26.6582C70.4495 26.8751 70.6034 27.0475 70.8065 27.1736C71.008 27.2998 71.2419 27.3629 71.5081 27.3629C71.7742 27.3629 72.0081 27.2998 72.2096 27.1736Z" fill="#032066"/>
  <path d="M66.317 22.6934C66.1847 22.6934 66.0539 22.6411 65.9155 22.5749C65.7447 22.4965 65.5601 22.4165 65.3416 22.4165C64.9401 22.4165 64.6831 22.6873 64.6831 23.2934H65.237C65.2431 23.0965 65.3031 23.0165 65.4216 23.0165C65.5339 23.0165 65.6724 23.0765 65.8108 23.135C65.9955 23.2134 66.2001 23.2934 66.397 23.2934C66.7986 23.2934 67.0555 23.0227 67.0555 22.4165H66.5017C66.4955 22.6211 66.4355 22.6934 66.317 22.6934Z" fill="#032066"/>
  <path d="M39.3434 11.039L36.4664 10.4944C34.337 10.1097 33.3031 9.24353 33.3031 7.84808C33.3031 6.45263 34.2909 5.25565 36.9833 5.25565C40.6204 5.25565 41.4881 7.9327 41.4881 7.9327L43.2775 7.34652C43.2775 7.34652 42.1636 3.47095 36.9833 3.47095C33.3816 3.47095 31.3107 5.23257 31.3107 7.95116C31.3107 10.2713 32.817 11.7252 35.7879 12.2729L38.588 12.8175C40.7281 13.2037 41.5189 14.3392 41.5189 15.6454C41.5189 19.0286 36.651 19.1979 34.397 17.7947C33.517 17.247 32.8847 16.4193 32.5185 15.3377L32.4708 15.1946L30.6292 15.7777L30.6707 15.9223C31.0938 17.3685 31.9138 18.4917 33.1062 19.2594C34.9463 20.4456 39.4788 21.1887 41.9543 19.1178C42.9882 18.2532 43.5129 17.067 43.5129 15.5931C43.5129 13.4591 42.3974 11.6252 39.3465 11.0375L39.3434 11.039Z" fill="#032066"/>
  <path d="M69.4741 11.039L66.597 10.4944C64.4677 10.1097 63.4338 9.24353 63.4338 7.84808C63.4338 6.45263 64.4215 5.25565 67.114 5.25565C70.7511 5.25565 71.6188 7.9327 71.6188 7.9327L73.4081 7.34652C73.4081 7.34652 72.2942 3.47095 67.114 3.47095C63.5123 3.47095 61.4414 5.23257 61.4414 7.95116C61.4414 10.2713 62.9476 11.7252 65.9186 12.2729L68.7187 12.8175C70.8588 13.2037 71.6496 14.3392 71.6496 15.6454C71.6496 19.0286 66.7817 19.1979 64.5277 17.7947C63.6477 17.247 63.0153 16.4193 62.6492 15.3377L62.6015 15.1946L60.7598 15.7777L60.8014 15.9223C61.2245 17.3685 62.0445 18.4917 63.2369 19.2594C65.077 20.4456 69.6095 21.1887 72.085 19.1178C73.1189 18.2532 73.6435 17.067 73.6435 15.5931C73.6435 13.4591 72.5281 11.6252 69.4772 11.0375L69.4741 11.039Z" fill="#032066"/>
  <path d="M51.1748 3.95097L44.5052 19.8656H46.5992L48.6439 14.9253H55.7181L57.7505 19.8656L59.8613 19.8625L53.2226 3.95097H51.1748ZM54.995 13.1653H49.367L52.1687 6.33878L54.995 13.1653Z" fill="#032066"/>
</svg>
